<?xml version="1.0" encoding="UTF-8"?>
<!DOCTYPE svg PUBLIC "-//W3C//DTD SVG 1.1//EN" "http://www.w3.org/Graphics/SVG/1.1/DTD/svg11.dtd">
<!-- Creator: CorelDRAW -->
<svg xmlns="http://www.w3.org/2000/svg" xml:space="preserve" width="6.82666in" height="6.82666in" style="shape-rendering:geometricPrecision; text-rendering:geometricPrecision; image-rendering:optimizeQuality; fill-rule:evenodd; clip-rule:evenodd"
viewBox="0 0 6.82666 6.82666"
 xmlns:xlink="http://www.w3.org/1999/xlink">
 <defs>
  <style type="text/css">
   <![CDATA[
    .fil2 {fill:none}
    .fil8 {fill:#0271B7}
    .fil10 {fill:#2E7D32}
    .fil7 {fill:#D45054}
    .fil9 {fill:#FF6F00}
    .fil1 {fill:#FFD54F}
    .fil0 {fill:#FFE082}
    .fil6 {fill:#1976D2;fill-rule:nonzero}
    .fil4 {fill:#4CAF50;fill-rule:nonzero}
    .fil3 {fill:#F15C62;fill-rule:nonzero}
    .fil5 {fill:#FF6F00;fill-rule:nonzero}
   ]]>
  </style>
   <clipPath id="id0">
    <path d="M3.41333 -3.93701e-006c1.88513,0 3.41333,1.5282 3.41333,3.41333 0,1.88513 -1.5282,3.41333 -3.41333,3.41333 -1.88513,0 -3.41333,-1.5282 -3.41333,-3.41333 0,-1.88513 1.5282,-3.41333 3.41333,-3.41333z"/>
   </clipPath>
 </defs>
 <g id="Layer_x0020_1">
  <metadata id="CorelCorpID_0Corel-Layer"/>
  <path class="fil0" d="M3.41333 -3.93701e-006c1.88513,0 3.41333,1.5282 3.41333,3.41333 0,1.88513 -1.5282,3.41333 -3.41333,3.41333 -1.88513,0 -3.41333,-1.5282 -3.41333,-3.41333 0,-1.88513 1.5282,-3.41333 3.41333,-3.41333z"/>
  <g style="clip-path:url(#id0)">
   <g id="_457172720">
    <g>
     <polygon id="_4528490481" class="fil1" points="3.57993,1.63628 7.3662,5.42255 7.37889,5.43767 7.39137,5.45389 7.40365,5.47119 7.41572,5.48957 7.42759,5.50901 7.43923,5.52949 7.45065,5.551 7.46185,5.57351 7.47283,5.59702 7.48357,5.6215 7.49407,5.64695 7.50434,5.67335 7.51436,5.70068 7.52414,5.72893 7.53367,5.75807 7.54294,5.7881 7.55196,5.819 7.56072,5.85074 7.56921,5.88333 7.57743,5.91674 3.79116,2.13047 3.78294,2.09706 3.77445,2.06447 3.76569,2.03272 3.75668,2.00183 3.7474,1.9718 3.73787,1.94265 3.72809,1.91441 3.71807,1.88708 3.7078,1.86068 3.6973,1.83523 3.68656,1.81075 3.67559,1.78724 3.66439,1.76472 3.65296,1.74322 3.64132,1.72274 3.62946,1.7033 3.61739,1.68492 3.6051,1.66761 3.59262,1.65139 "/>
     <polygon id="_452849432" class="fil1" points="3.79116,2.13047 7.57743,5.91674 7.57844,5.92098 7.57944,5.92523 7.58045,5.9295 7.58145,5.93377 7.58244,5.93806 7.58344,5.94237 7.58443,5.94668 7.58541,5.95101 7.5864,5.95536 7.58738,5.95971 7.58835,5.96408 7.58933,5.96846 7.5903,5.97286 7.59126,5.97727 7.59222,5.98169 7.59319,5.98613 7.59414,5.99058 7.59509,5.99504 7.59604,5.99951 7.59699,6.004 7.59793,6.0085 7.59887,6.01301 7.5998,6.01754 7.60073,6.02207 7.60166,6.02663 7.60259,6.03119 7.60351,6.03576 7.60443,6.04035 7.60534,6.04495 7.60625,6.04957 7.60716,6.05419 7.60806,6.05883 3.82179,2.27256 3.82089,2.26792 3.81998,2.2633 3.81907,2.25868 3.81816,2.25408 3.81724,2.24949 3.81632,2.24492 3.81539,2.24035 3.81446,2.2358 3.81354,2.23126 3.8126,2.22674 3.81166,2.22223 3.81072,2.21773 3.80978,2.21324 3.80882,2.20877 3.80787,2.20431 3.80692,2.19986 3.80596,2.19542 3.805,2.191 3.80403,2.18659 3.80306,2.18219 3.80209,2.17781 3.80111,2.17344 3.80013,2.16909 3.79915,2.16474 3.79816,2.16041 3.79717,2.15609 3.79618,2.15179 3.79518,2.1475 3.79418,2.14322 3.79318,2.13896 3.79217,2.13471 "/>
     <polygon id="_452850176" class="fil1" points="4.99234,1.85833 8.77861,5.64461 8.78888,5.65811 8.79797,5.67255 8.80589,5.68791 8.81264,5.70417 8.81824,5.72132 8.82269,5.73934 8.82601,5.75822 8.82821,5.77794 8.82929,5.79848 8.82926,5.81983 8.82815,5.84198 8.82594,5.86489 8.82267,5.88857 8.81832,5.91299 8.81293,5.93814 8.80648,5.964 8.799,5.99055 8.7905,6.01778 8.78098,6.04567 8.77046,6.07421 8.75893,6.10339 8.74643,6.13317 8.73294,6.16356 8.7185,6.19452 8.70309,6.22605 8.68674,6.25813 8.66946,6.29074 8.65124,6.32388 8.63211,6.35751 8.61207,6.39163 8.59114,6.42622 4.80487,2.63994 4.82581,2.60536 4.84584,2.57124 4.86497,2.53761 4.88319,2.50447 4.90047,2.47186 4.91683,2.43978 4.93223,2.40825 4.94668,2.37728 4.96016,2.3469 4.97267,2.31711 4.98419,2.28794 4.99471,2.2594 5.00423,2.23151 5.01274,2.20428 5.02021,2.17772 5.02666,2.15187 5.03206,2.12672 5.0364,2.1023 5.03968,2.07862 5.04188,2.0557 5.043,2.03356 5.04302,2.01221 5.04194,1.99167 5.03974,1.97195 5.03643,1.95307 5.03197,1.93505 5.02637,1.91789 5.01962,1.90163 5.0117,1.88628 5.00261,1.87184 "/>
     <polygon id="_452849984" class="fil1" points="4.80487,2.63994 8.59114,6.42622 8.58454,6.43693 8.57786,6.44768 8.57109,6.45849 8.56424,6.46935 8.55731,6.48025 8.5503,6.4912 8.5432,6.5022 8.53603,6.51326 8.52877,6.52435 8.52144,6.53549 8.51402,6.54668 8.50652,6.55791 8.49895,6.56919 8.4913,6.5805 8.48356,6.59187 8.47575,6.60327 8.46786,6.61472 8.45989,6.62621 8.45185,6.63774 8.44372,6.64931 8.43553,6.66093 8.42725,6.67257 8.4189,6.68426 8.41047,6.69599 8.40197,6.70776 8.39339,6.71956 8.38474,6.73141 8.37602,6.74328 8.36721,6.75519 8.35834,6.76714 8.34939,6.77913 8.34037,6.79114 4.5541,3.00487 4.56312,2.99285 4.57207,2.98087 4.58094,2.96892 4.58975,2.95701 4.59847,2.94513 4.60713,2.93329 4.6157,2.92149 4.6242,2.90972 4.63263,2.89799 4.64098,2.8863 4.64926,2.87465 4.65746,2.86304 4.66558,2.85147 4.67363,2.83994 4.68159,2.82845 4.68948,2.817 4.6973,2.80559 4.70503,2.79423 4.71268,2.78291 4.72026,2.77164 4.72775,2.76041 4.73517,2.74922 4.7425,2.73808 4.74976,2.72698 4.75694,2.71593 4.76403,2.70493 4.77104,2.69398 4.77797,2.68307 4.78482,2.67222 4.79159,2.66141 4.79827,2.65065 "/>
     <polygon id="_452850080" class="fil1" points="5.21725,3.2727 9.00352,7.05897 9.01522,7.07224 9.02577,7.0857 9.03513,7.09933 9.0433,7.11315 9.05025,7.12715 9.05598,7.14131 9.06046,7.15564 9.06367,7.17013 9.06562,7.18479 9.06627,7.1996 5.28,3.41333 5.27935,3.39852 5.27741,3.38386 5.27419,3.36937 5.26971,3.35504 5.26398,3.34087 5.25703,3.32688 5.24887,3.31306 5.2395,3.29943 5.22896,3.28597 "/>
     <polygon id="_452850488" class="fil1" points="5.28,3.41333 9.06627,7.1996 9.06562,7.21441 9.06367,7.22907 9.06046,7.24357 9.05598,7.2579 9.05025,7.27206 9.0433,7.28606 9.03513,7.29987 9.02577,7.31351 9.01522,7.32696 9.00352,7.34024 8.99065,7.35331 8.97665,7.3662 8.96154,7.37889 8.94531,7.39137 8.92801,7.40366 8.90963,7.41573 8.89019,7.42759 8.86971,7.43923 8.8482,7.45066 8.82569,7.46186 8.80218,7.47283 8.7777,7.48357 8.75225,7.49407 8.72585,7.50434 8.69852,7.51437 8.67028,7.52415 8.64113,7.53367 8.6111,7.54295 8.5802,7.55196 8.54846,7.56072 8.51587,7.56921 8.48246,7.57743 4.69619,3.79116 4.7296,3.78294 4.76219,3.77445 4.79394,3.76569 4.82483,3.75668 4.85487,3.7474 4.88401,3.73787 4.91225,3.72809 4.93958,3.71807 4.96598,3.7078 4.99143,3.6973 5.01591,3.68656 5.03943,3.67559 5.06194,3.66439 5.08344,3.65296 5.10392,3.64132 5.12336,3.62946 5.14174,3.61739 5.15905,3.6051 5.17527,3.59262 5.19039,3.57993 5.20438,3.56704 5.21725,3.55396 5.22896,3.54069 5.2395,3.52724 5.24887,3.5136 5.25703,3.49978 5.26398,3.48579 5.26971,3.47163 5.27419,3.4573 5.27741,3.4428 5.27935,3.42814 "/>
     <polygon id="_452851040" class="fil1" points="4.69619,3.79116 8.48246,7.57743 8.47822,7.57844 8.47397,7.57945 8.4697,7.58045 8.46543,7.58145 8.46114,7.58245 8.45683,7.58344 8.45252,7.58443 8.44819,7.58542 8.44384,7.5864 8.43949,7.58738 8.43512,7.58836 8.43074,7.58933 8.42634,7.5903 8.42193,7.59127 8.41751,7.59223 8.41307,7.59319 8.40862,7.59415 8.40416,7.59509 8.39969,7.59605 8.3952,7.59699 8.3907,7.59793 8.38619,7.59887 8.38167,7.59981 8.37713,7.60074 8.37257,7.60167 8.36801,7.60259 8.36344,7.60351 8.35885,7.60443 8.35425,7.60534 8.34963,7.60625 8.34501,7.60716 8.34037,7.60806 4.5541,3.82179 4.55874,3.82089 4.56337,3.81998 4.56798,3.81907 4.57258,3.81816 4.57717,3.81724 4.58174,3.81632 4.58631,3.81539 4.59086,3.81446 4.5954,3.81354 4.59992,3.8126 4.60443,3.81166 4.60893,3.81072 4.61342,3.80978 4.61789,3.80882 4.62235,3.80787 4.6268,3.80692 4.63124,3.80596 4.63566,3.805 4.64007,3.80403 4.64447,3.80306 4.64885,3.80209 4.65322,3.80111 4.65757,3.80013 4.66192,3.79915 4.66625,3.79816 4.67057,3.79717 4.67487,3.79618 4.67916,3.79518 4.68344,3.79418 4.6877,3.79318 4.69195,3.79217 "/>
     <polygon id="_452850920" class="fil1" points="4.5541,3.82179 8.34037,7.60806 8.34939,7.62008 8.35834,7.63206 8.36721,7.64401 8.37602,7.65592 8.38474,7.6678 8.39339,7.67964 8.40197,7.69144 8.41047,7.70321 8.4189,7.71494 8.42725,7.72663 8.43553,7.73828 8.44372,7.74989 8.45185,7.76146 8.45989,7.773 8.46786,7.78448 8.47575,7.79593 8.48356,7.80734 8.4913,7.8187 8.49895,7.83002 8.50652,7.8413 8.51402,7.85253 8.52144,7.86371 8.52877,7.87485 8.53603,7.88595 8.5432,7.897 8.5503,7.908 8.55731,7.91895 8.56424,7.92986 8.57109,7.94072 8.57786,7.95152 8.58454,7.96228 8.59114,7.97299 4.80487,4.18672 4.79827,4.17601 4.79159,4.16525 4.78482,4.15444 4.77797,4.14359 4.77104,4.13268 4.76403,4.12173 4.75694,4.11073 4.74976,4.09968 4.7425,4.08858 4.73517,4.07744 4.72775,4.06626 4.72026,4.05502 4.71268,4.04375 4.70503,4.03243 4.6973,4.02107 4.68948,4.00966 4.68159,3.99821 4.67363,3.98672 4.66558,3.97519 4.65746,3.96362 4.64926,3.95201 4.64098,3.94036 4.63263,3.92867 4.6242,3.91694 4.6157,3.90517 4.60713,3.89337 4.59847,3.88153 4.58975,3.86965 4.58094,3.85774 4.57207,3.84579 4.56312,3.83381 "/>
     <polygon id="_452850944" class="fil1" points="4.80487,4.18672 8.59114,7.97299 8.61207,8.00757 8.63211,8.04169 8.65124,8.07533 8.66946,8.10846 8.68674,8.14107 8.70309,8.17315 8.7185,8.20469 8.73294,8.23565 8.74643,8.26604 8.75893,8.29582 8.77046,8.32499 8.78098,8.35353 8.7905,8.38143 8.799,8.40866 8.80648,8.43521 8.81293,8.46107 8.81832,8.48622 8.82267,8.51063 8.82594,8.53431 8.82815,8.55723 8.82926,8.57937 8.82929,8.60072 8.82821,8.62126 8.82601,8.64098 8.82269,8.65986 8.81824,8.67789 8.81264,8.69504 8.80589,8.7113 8.79797,8.72666 8.78888,8.74109 8.77861,8.7546 8.76714,8.76715 4.98087,4.98087 4.99234,4.96833 5.00261,4.95482 5.0117,4.94039 5.01962,4.92503 5.02637,4.90877 5.03197,4.89161 5.03643,4.87359 5.03974,4.85471 5.04194,4.83499 5.04302,4.81445 5.043,4.7931 5.04188,4.77096 5.03968,4.74804 5.0364,4.72436 5.03206,4.69994 5.02666,4.6748 5.02021,4.64894 5.01274,4.62239 5.00423,4.59515 4.99471,4.56726 4.98419,4.53872 4.97267,4.50955 4.96016,4.47976 4.94668,4.44938 4.93223,4.41841 4.91683,4.38688 4.90047,4.3548 4.88319,4.32219 4.86497,4.28906 4.84584,4.25542 4.82581,4.2213 "/>
     <polygon id="_452850824" class="fil1" points="4.98087,4.98087 8.76714,8.76715 8.75459,8.77861 8.74109,8.78889 8.72665,8.79798 8.7113,8.80589 8.69504,8.81264 8.67788,8.81824 8.65986,8.82269 8.64098,8.82602 8.62126,8.82821 8.60072,8.82929 8.57937,8.82927 8.55722,8.82815 8.53431,8.82594 8.51063,8.82267 8.48621,8.81832 8.46106,8.81293 8.4352,8.80648 8.40865,8.799 8.38142,8.7905 8.35353,8.78098 8.32499,8.77046 8.29581,8.75894 8.26603,8.74643 8.23565,8.73295 8.20468,8.7185 8.17315,8.70309 8.14107,8.68674 8.10846,8.66946 8.07532,8.65124 8.04169,8.63211 8.00757,8.61208 7.97298,8.59115 4.18672,4.80487 4.2213,4.82581 4.25542,4.84584 4.28906,4.86497 4.32219,4.88319 4.3548,4.90047 4.38688,4.91682 4.41841,4.93223 4.44938,4.94668 4.47976,4.96016 4.50955,4.97267 4.53872,4.98419 4.56726,4.99471 4.59515,5.00423 4.62239,5.01273 4.64894,5.02021 4.6748,5.02665 4.69994,5.03205 4.72436,5.03639 4.74804,5.03967 4.77096,5.04188 4.7931,5.043 4.81445,5.04302 4.83499,5.04194 4.85471,5.03974 4.87359,5.03642 4.89161,5.03197 4.90877,5.02637 4.92503,5.01962 4.94039,5.0117 4.95482,5.00261 4.96833,4.99234 "/>
     <polygon id="_452851112" class="fil1" points="4.18672,4.80487 7.97298,8.59115 7.96228,8.58454 7.95152,8.57786 7.94071,8.57109 7.92985,8.56424 7.91895,8.55731 7.908,8.5503 7.897,8.54321 7.88594,8.53603 7.87485,8.52878 7.86371,8.52144 7.85252,8.51402 7.84129,8.50653 7.83002,8.49895 7.8187,8.4913 7.80733,8.48357 7.79593,8.47575 7.78448,8.46786 7.77299,8.4599 7.76146,8.45185 7.74989,8.44373 7.73828,8.43553 7.72663,8.42726 7.71494,8.41891 7.70321,8.41048 7.69144,8.40198 7.67964,8.3934 7.6678,8.38474 7.65592,8.37602 7.64401,8.36722 7.63206,8.35834 7.62007,8.34939 7.60806,8.34037 3.82179,4.5541 3.83381,4.56312 3.84579,4.57207 3.85774,4.58094 3.86965,4.58975 3.88153,4.59847 3.89337,4.60713 3.90517,4.6157 3.91694,4.6242 3.92867,4.63263 3.94036,4.64098 3.95201,4.64926 3.96362,4.65746 3.97519,4.66558 3.98672,4.67363 3.99821,4.68159 4.00966,4.68948 4.02107,4.6973 4.03243,4.70503 4.04375,4.71268 4.05502,4.72026 4.06626,4.72775 4.07744,4.73517 4.08858,4.7425 4.09968,4.74976 4.11073,4.75694 4.12173,4.76403 4.13268,4.77104 4.14359,4.77797 4.15444,4.78482 4.16525,4.79159 4.17601,4.79827 "/>
     <polygon id="_452850536" class="fil1" points="3.82179,4.5541 7.60806,8.34037 7.60716,8.34501 7.60625,8.34964 7.60534,8.35425 7.60443,8.35885 7.60351,8.36344 7.60259,8.36802 7.60166,8.37258 7.60073,8.37713 7.5998,8.38167 7.59887,8.38619 7.59793,8.3907 7.59699,8.3952 7.59604,8.39969 7.59509,8.40417 7.59414,8.40863 7.59319,8.41307 7.59222,8.41751 7.59126,8.42193 7.5903,8.42634 7.58933,8.43074 7.58835,8.43512 7.58738,8.43949 7.5864,8.44385 7.58541,8.44819 7.58443,8.45252 7.58344,8.45684 7.58244,8.46114 7.58145,8.46543 7.58045,8.46971 7.57944,8.47397 7.57844,8.47822 7.57743,8.48246 3.79116,4.69619 3.79217,4.69195 3.79318,4.6877 3.79418,4.68344 3.79518,4.67916 3.79618,4.67487 3.79717,4.67057 3.79816,4.66625 3.79915,4.66192 3.80013,4.65757 3.80111,4.65322 3.80209,4.64885 3.80306,4.64447 3.80403,4.64007 3.805,4.63566 3.80596,4.63124 3.80692,4.6268 3.80787,4.62235 3.80882,4.61789 3.80978,4.61342 3.81072,4.60893 3.81166,4.60443 3.8126,4.59992 3.81354,4.5954 3.81446,4.59086 3.81539,4.58631 3.81632,4.58174 3.81724,4.57717 3.81816,4.57258 3.81907,4.56798 3.81998,4.56337 3.82089,4.55874 "/>
     <polygon id="_452850416" class="fil1" points="2.27256,3.82179 6.05883,7.60806 6.05419,7.60716 6.04956,7.60625 6.04495,7.60534 6.04035,7.60443 6.03576,7.60351 6.03119,7.60259 6.02662,7.60167 6.02207,7.60074 6.01753,7.59981 6.01301,7.59887 6.0085,7.59793 6.004,7.59699 5.99951,7.59605 5.99504,7.59509 5.99057,7.59415 5.98613,7.59319 5.98169,7.59223 5.97727,7.59127 5.97286,7.5903 5.96846,7.58933 5.96408,7.58836 5.95971,7.58738 5.95535,7.5864 5.95101,7.58542 5.94668,7.58443 5.94236,7.58344 5.93806,7.58245 5.93377,7.58145 5.92949,7.58045 5.92523,7.57945 5.92098,7.57844 5.91674,7.57743 2.13047,3.79116 2.13471,3.79217 2.13896,3.79318 2.14322,3.79418 2.1475,3.79518 2.15179,3.79618 2.15609,3.79717 2.16041,3.79816 2.16474,3.79915 2.16909,3.80013 2.17344,3.80111 2.17781,3.80209 2.18219,3.80306 2.18659,3.80403 2.191,3.805 2.19542,3.80596 2.19986,3.80692 2.20431,3.80787 2.20877,3.80882 2.21324,3.80978 2.21773,3.81072 2.22223,3.81166 2.22674,3.8126 2.23126,3.81354 2.2358,3.81446 2.24035,3.81539 2.24492,3.81632 2.24949,3.81724 2.25408,3.81816 2.25868,3.81907 2.2633,3.81998 2.26792,3.82089 "/>
     <polygon id="_452850992" class="fil1" points="2.13047,3.79116 5.91674,7.57743 5.88333,7.56921 5.85074,7.56072 5.81899,7.55196 5.78809,7.54295 5.75806,7.53367 5.72892,7.52415 5.70068,7.51437 5.67335,7.50434 5.64695,7.49407 5.6215,7.48357 5.59702,7.47283 5.5735,7.46186 5.55099,7.45066 5.52949,7.43923 5.50901,7.42759 5.48957,7.41573 5.47119,7.40366 5.45388,7.39137 5.43766,7.37889 5.42254,7.3662 1.63628,3.57993 1.65139,3.59262 1.66761,3.6051 1.68492,3.61739 1.7033,3.62946 1.72274,3.64132 1.74322,3.65296 1.76472,3.66439 1.78724,3.67559 1.81075,3.68656 1.83523,3.6973 1.86068,3.7078 1.88708,3.71807 1.91441,3.72809 1.94265,3.73787 1.9718,3.7474 2.00183,3.75668 2.03272,3.76569 2.06447,3.77445 2.09706,3.78294 "/>
     <polygon id="_452850584" class="fil1" points="3.00487,4.5541 6.79114,8.34037 6.77912,8.34939 6.76714,8.35834 6.75519,8.36722 6.74328,8.37602 6.7314,8.38474 6.71956,8.3934 6.70776,8.40198 6.69599,8.41048 6.68426,8.41891 6.67257,8.42726 6.66092,8.43553 6.64931,8.44373 6.63774,8.45185 6.6262,8.4599 6.61472,8.46786 6.60327,8.47575 6.59186,8.48357 6.5805,8.4913 6.56918,8.49895 6.55791,8.50653 6.54667,8.51402 6.53549,8.52144 6.52435,8.52878 6.51325,8.53603 6.5022,8.54321 6.4912,8.5503 6.48025,8.55731 6.46934,8.56424 6.45848,8.57109 6.44768,8.57786 6.43692,8.58454 6.42621,8.59115 2.63994,4.80487 2.65065,4.79827 2.66141,4.79159 2.67222,4.78482 2.68307,4.77797 2.69398,4.77104 2.70493,4.76403 2.71593,4.75694 2.72698,4.74976 2.73808,4.7425 2.74922,4.73517 2.76041,4.72775 2.77164,4.72026 2.78291,4.71268 2.79423,4.70503 2.80559,4.6973 2.817,4.68948 2.82845,4.68159 2.83994,4.67363 2.85147,4.66558 2.86304,4.65746 2.87465,4.64926 2.8863,4.64098 2.89799,4.63263 2.90972,4.6242 2.92149,4.6157 2.93329,4.60713 2.94513,4.59847 2.95701,4.58975 2.96892,4.58094 2.98087,4.57207 2.99285,4.56312 "/>
     <polygon id="_452851808" class="fil1" points="2.63994,4.80487 6.42621,8.59115 6.39163,8.61208 6.35751,8.63211 6.32387,8.65124 6.29074,8.66946 6.25813,8.68674 6.22605,8.70309 6.19452,8.7185 6.16355,8.73295 6.13317,8.74643 6.10338,8.75894 6.07421,8.77046 6.04567,8.78098 6.01778,8.7905 5.99054,8.799 5.96399,8.80648 5.93813,8.81293 5.91298,8.81832 5.88857,8.82267 5.86489,8.82594 5.84197,8.82815 5.81983,8.82927 5.79848,8.82929 5.77794,8.82821 5.75822,8.82602 5.73934,8.82269 5.72131,8.81824 5.70416,8.81264 5.6879,8.80589 5.67254,8.79798 5.65811,8.78889 5.6446,8.77861 1.85833,4.99234 1.87184,5.00261 1.88628,5.0117 1.90163,5.01962 1.91789,5.02637 1.93505,5.03197 1.95307,5.03642 1.97195,5.03974 1.99167,5.04194 2.01221,5.04302 2.03356,5.043 2.0557,5.04188 2.07862,5.03967 2.1023,5.03639 2.12672,5.03205 2.15187,5.02665 2.17772,5.02021 2.20428,5.01273 2.23151,5.00423 2.2594,4.99471 2.28794,4.98419 2.31711,4.97267 2.3469,4.96016 2.37728,4.94668 2.40825,4.93223 2.43978,4.91682 2.47186,4.90047 2.50447,4.88319 2.53761,4.86497 2.57124,4.84584 2.60536,4.82581 "/>
     <polygon id="_452851568" class="fil1" points="3.41333,5.28 7.1996,9.06627 7.18479,9.06562 7.17013,9.06368 7.15563,9.06046 7.1413,9.05598 7.12714,9.05026 7.11315,9.0433 7.09933,9.03514 7.08569,9.02578 7.07224,9.01523 7.05896,9.00352 3.2727,5.21725 3.28597,5.22896 3.29943,5.2395 3.31306,5.24887 3.32688,5.25703 3.34087,5.26398 3.35504,5.26971 3.36937,5.27419 3.38386,5.27741 3.39852,5.27935 "/>
     <polygon id="_452851160" class="fil1" points="3.79116,4.69619 7.57743,8.48246 7.56921,8.51587 7.56072,8.54846 7.55196,8.58021 7.54294,8.61111 7.53367,8.64114 7.52414,8.67028 7.51436,8.69852 7.50434,8.72585 7.49407,8.75225 7.48357,8.7777 7.47283,8.80219 7.46185,8.8257 7.45065,8.84821 7.43923,8.86971 7.42759,8.89019 7.41572,8.90963 7.40365,8.92801 7.39137,8.94532 7.37889,8.96154 7.3662,8.97666 7.35331,8.99065 7.34023,9.00352 7.32696,9.01523 7.3135,9.02578 7.29987,9.03514 7.28605,9.0433 7.27206,9.05026 7.25789,9.05598 7.24356,9.06046 7.22907,9.06368 7.21441,9.06562 7.1996,9.06627 3.41333,5.28 3.42814,5.27935 3.4428,5.27741 3.4573,5.27419 3.47163,5.26971 3.48579,5.26398 3.49978,5.25703 3.5136,5.24887 3.52724,5.2395 3.54069,5.22896 3.55396,5.21725 3.56704,5.20438 3.57993,5.19039 3.59262,5.17527 3.6051,5.15905 3.61739,5.14174 3.62946,5.12336 3.64132,5.10392 3.65296,5.08344 3.66439,5.06194 3.67559,5.03943 3.68656,5.01591 3.6973,4.99143 3.7078,4.96598 3.71807,4.93958 3.72809,4.91225 3.73787,4.88401 3.7474,4.85487 3.75668,4.82483 3.76569,4.79394 3.77445,4.76219 3.78294,4.7296 "/>
    </g>
    <path id="_457172648" class="fil1" d="M3.41333 1.54666c0.158815,0 0.291579,0.223106 0.377831,0.583811 0.0107874,0.0451181 0.0210157,0.0925472 0.0306299,0.142087 0.128358,-0.0966142 0.250984,-0.180807 0.364925,-0.250772 0.371378,-0.228035 0.665449,-0.304713 0.794157,-0.176 0.12872,0.128709 0.0520354,0.42278 -0.176,0.794157 -0.0699646,0.113941 -0.154157,0.236567 -0.250772,0.364925 0.0495394,0.00961417 0.0969685,0.0198425 0.142087,0.0306299 0.360705,0.086252 0.583811,0.219016 0.583811,0.377831 0,0.158815 -0.223106,0.291579 -0.583811,0.377831 -0.0451181,0.0107874 -0.0925472,0.0210157 -0.142087,0.0306299 0.0966142,0.128358 0.180807,0.250984 0.250772,0.364925 0.228035,0.371378 0.30472,0.665449 0.176,0.794157 -0.128709,0.128713 -0.42278,0.0520354 -0.794157,-0.176 -0.113941,-0.0699646 -0.236567,-0.154157 -0.364925,-0.250772 -0.00961417,0.0495394 -0.0198425,0.0969685 -0.0306299,0.142087 -0.086252,0.360705 -0.219016,0.583811 -0.377831,0.583811 -0.158815,0 -0.291579,-0.223106 -0.377831,-0.583811 -0.0107874,-0.0451181 -0.0210157,-0.0925472 -0.0306299,-0.142087 -0.128358,0.0966142 -0.250984,0.180807 -0.364925,0.250772 -0.371378,0.228035 -0.665449,0.304713 -0.794157,0.176 -0.12872,-0.128709 -0.0520354,-0.42278 0.176,-0.794157 0.0699646,-0.113941 0.154157,-0.236567 0.250772,-0.364925 -0.0495394,-0.00961417 -0.0969685,-0.0198425 -0.142087,-0.0306299 -0.360705,-0.086252 -0.583811,-0.219016 -0.583811,-0.377831 0,-0.158815 0.223106,-0.291579 0.583811,-0.377831 0.0451181,-0.0107874 0.0925472,-0.0210157 0.142087,-0.0306299 -0.0966142,-0.128358 -0.180807,-0.250984 -0.250772,-0.364925 -0.228035,-0.371378 -0.30472,-0.665449 -0.176,-0.794157 0.128709,-0.128713 0.42278,-0.0520354 0.794157,0.176 0.107453,0.0659764 0.222626,0.144614 0.343047,0.234386 0.00862992,-0.00376772 0.0176299,-0.00684646 0.0269291,-0.00916535 0.00812205,-0.0403504 0.0166575,-0.0792323 0.0255787,-0.116535 0.086252,-0.360705 0.219016,-0.583811 0.377831,-0.583811z"/>
   </g>
  </g>
  <path class="fil2" d="M3.41333 -3.93701e-006c1.88513,0 3.41333,1.5282 3.41333,3.41333 0,1.88513 -1.5282,3.41333 -3.41333,3.41333 -1.88513,0 -3.41333,-1.5282 -3.41333,-3.41333 0,-1.88513 1.5282,-3.41333 3.41333,-3.41333z"/>
  <path class="fil3" d="M3.41333 1.54666c0.158815,0 0.291579,0.223106 0.377831,0.583811 0.0789134,0.33 0.127724,0.783705 0.127724,1.28286 0,0.499154 -0.048811,0.952858 -0.127724,1.28286 -0.086252,0.360705 -0.219016,0.583811 -0.377831,0.583811 -0.158815,0 -0.291579,-0.223106 -0.377831,-0.583811 -0.0789134,-0.33 -0.127724,-0.783705 -0.127724,-1.28286 0,-0.499154 0.048811,-0.952858 0.127724,-1.28286 0.086252,-0.360705 0.219016,-0.583811 0.377831,-0.583811zm0.227134 0.619657c-0.0685669,-0.286736 -0.149701,-0.464094 -0.227134,-0.464094 -0.0774331,0 -0.158567,0.177358 -0.227134,0.464094 -0.0759094,0.317441 -0.122862,0.758197 -0.122862,1.24701 0,0.488815 0.0469528,0.929571 0.122862,1.24701 0.0685669,0.286736 0.149701,0.464094 0.227134,0.464094 0.0774331,0 0.158567,-0.177358 0.227134,-0.464094 0.0759094,-0.317441 0.122862,-0.758197 0.122862,-1.24701 0,-0.488815 -0.0469528,-0.929571 -0.122862,-1.24701z"/>
  <path class="fil4" d="M5.28 3.41333c0,0.158815 -0.223106,0.291579 -0.583811,0.377831 -0.33,0.0789134 -0.783705,0.127724 -1.28286,0.127724 -0.499154,0 -0.952858,-0.048811 -1.28286,-0.127724 -0.360705,-0.086252 -0.583811,-0.219016 -0.583811,-0.377831 0,-0.158815 0.223106,-0.291579 0.583811,-0.377831 0.33,-0.0789134 0.783705,-0.127724 1.28286,-0.127724 0.499154,0 0.952858,0.048811 1.28286,0.127724 0.360705,0.086252 0.583811,0.219016 0.583811,0.377831zm-0.619657 0.227134c0.286736,-0.0685669 0.464094,-0.149701 0.464094,-0.227134 0,-0.0774331 -0.177358,-0.158567 -0.464094,-0.227134 -0.317441,-0.0759094 -0.758197,-0.122862 -1.24701,-0.122862 -0.488815,0 -0.929571,0.0469528 -1.24701,0.122862 -0.286736,0.0685669 -0.464094,0.149701 -0.464094,0.227134 0,0.0774331 0.177358,0.158567 0.464094,0.227134 0.317441,0.0759094 0.758197,0.122862 1.24701,0.122862 0.488815,0 0.929571,-0.0469528 1.24701,-0.122862z"/>
  <path class="fil5" d="M4.98087 4.98087c-0.128709,0.128713 -0.42278,0.0520354 -0.794157,-0.176 -0.344508,-0.211535 -0.768409,-0.553189 -1.19003,-0.974807l-4.33071e-005 -4.72441e-005 -4.72441e-005 -4.33071e-005c-0.421618,-0.421622 -0.763272,-0.845524 -0.974807,-1.19003 -0.228035,-0.371378 -0.30472,-0.665449 -0.176,-0.794157 0.128709,-0.128713 0.42278,-0.0520354 0.794157,0.176 0.344508,0.211535 0.768409,0.553189 1.19003,0.974807l4.33071e-005 4.72441e-005 4.72441e-005 4.33071e-005c0.421618,0.421622 0.763272,0.845524 0.974807,1.19003 0.228035,0.371378 0.30472,0.665449 0.176,0.794157zm-0.713339 -0.308469c0.306945,0.188472 0.532319,0.269524 0.603358,0.198488 0.0710394,-0.0710394 -0.0100157,-0.296413 -0.198488,-0.603358 -0.204965,-0.333811 -0.53861,-0.747146 -0.952323,-1.16087l-4.72441e-005 -4.33071e-005 -4.33071e-005 -4.72441e-005c-0.413724,-0.413717 -0.827051,-0.747358 -1.16087,-0.952323 -0.306945,-0.188472 -0.532319,-0.269524 -0.603358,-0.198488 -0.0710394,0.0710394 0.0100157,0.296413 0.198488,0.603358 0.204965,0.333811 0.53861,0.747146 0.952323,1.16087l4.72441e-005 4.33071e-005 4.33071e-005 4.72441e-005c0.413724,0.413717 0.827051,0.747358 1.16087,0.952323z"/>
  <path class="fil6" d="M1.95577 4.87089c0.0710394,0.0710354 0.296413,-0.0100157 0.603358,-0.198488 0.333815,-0.204965 0.747142,-0.538606 1.16087,-0.952323l4.33071e-005 -4.72441e-005 4.72441e-005 -4.33071e-005c0.413713,-0.41372 0.747358,-0.827055 0.952323,-1.16087 0.188472,-0.306945 0.269528,-0.532319 0.198488,-0.603358 -0.0710394,-0.0710354 -0.296413,0.0100157 -0.603358,0.198488 -0.333815,0.204965 -0.747142,0.538606 -1.16087,0.952323l-4.33071e-005 4.72441e-005 -4.72441e-005 4.33071e-005c-0.413713,0.41372 -0.747358,0.827055 -0.952323,1.16087 -0.188472,0.306945 -0.269528,0.532319 -0.198488,0.603358zm0.684177 -0.0660197c-0.371378,0.228035 -0.665449,0.304713 -0.794157,0.176 -0.12872,-0.128709 -0.0520354,-0.42278 0.176,-0.794157 0.211535,-0.344508 0.553189,-0.768409 0.974807,-1.19003l4.72441e-005 -4.33071e-005 4.33071e-005 -4.72441e-005c0.421622,-0.421618 0.845524,-0.763272 1.19003,-0.974807 0.371378,-0.228035 0.665449,-0.304713 0.794157,-0.176 0.12872,0.128709 0.0520354,0.42278 -0.176,0.794157 -0.211535,0.344508 -0.553189,0.768409 -0.974807,1.19003l-4.72441e-005 4.33071e-005 -4.33071e-005 4.72441e-005c-0.421622,0.421618 -0.845524,0.763272 -1.19003,0.974807z"/>
  <circle class="fil7" cx="3.05157" cy="2.41346" r="0.171541"/>
  <circle class="fil7" cx="2.99838" cy="3.81414" r="0.210718"/>
  <circle class="fil8" cx="3.39435" cy="2.70896" r="0.171541"/>
  <circle class="fil8" cx="2.70164" cy="3.41079" r="0.171541"/>
  <circle class="fil9" cx="3.41258" cy="4.1035" r="0.171541"/>
  <circle class="fil9" cx="4.10529" cy="3.41079" r="0.171541"/>
  <circle class="fil10" cx="3.80654" cy="3.81414" r="0.210718"/>
  <circle class="fil10" cx="3.78223" cy="3.01205" r="0.210718"/>
  <circle class="fil7" cx="2.9923" cy="3.01205" r="0.210718"/>
 </g>
</svg>
