<svg xmlns="http://www.w3.org/2000/svg" viewBox="0 0 64 64"><defs><style>.cls-1{fill:#ffac00;}.cls-2{fill:#50d9d7;}.cls-3{fill:#93e6e5;}.cls-4{fill:#00bebd;}.cls-5{fill:#f3f3f3;}.cls-6{fill:#00aaa8;}.cls-7{fill:none;stroke:#fdfdfd;stroke-linecap:round;stroke-linejoin:round;stroke-width:2px;}</style></defs><title>RGB</title><g id="RGB"><path class="cls-1" d="M49.44,26.53A18.9,18.9,0,0,0,32,31.16a18.9,18.9,0,0,0-17.44-4.63,19,19,0,1,1,34.88,0Z"/><path class="cls-2" d="M32,31.16a18.62,18.62,0,0,0-4.44,6.31,19,19,0,0,1-13-10.94A18.94,18.94,0,0,1,32,31.16Z"/><path class="cls-3" d="M32,58.84C20,70.15,0,61.68,0,45A19,19,0,0,1,14.56,26.53a19,19,0,0,0,13,10.94A19,19,0,0,0,32,58.84Z"/><path class="cls-4" d="M49.44,26.53a19,19,0,0,1-13,10.94A18.62,18.62,0,0,0,32,31.16,18.9,18.9,0,0,1,49.44,26.53Z"/><path class="cls-5" d="M36.44,37.47a18.78,18.78,0,0,1-8.88,0A18.62,18.62,0,0,1,32,31.16,18.62,18.62,0,0,1,36.44,37.47Z"/><path class="cls-6" d="M32,58.84a19,19,0,0,1-4.44-21.37,18.78,18.78,0,0,0,8.88,0A19,19,0,0,1,32,58.84Z"/><path class="cls-2" d="M64,45c0,16.67-20,25.15-32,13.84a19,19,0,0,0,4.44-21.37,19,19,0,0,0,13-10.94A19,19,0,0,1,64,45Z"/><line class="cls-7" x1="29" y1="13" x2="29" y2="23"/><path class="cls-7" d="M29,13h3a3,3,0,0,1,0,6H29"/><line class="cls-7" x1="32" y1="19" x2="34" y2="23"/><path class="cls-7" d="M19,46h3v3a2,2,0,0,1-2,2H18a2,2,0,0,1-2-2V43a2,2,0,0,1,2-2h4"/><line class="cls-7" x1="22" y1="46" x2="22" y2="51"/><path class="cls-7" d="M42,40V50h3.5a2.5,2.5,0,0,0,0-5h0a2.5,2.5,0,0,0,0-5H42"/><rect class="cls-5" x="52" width="12" height="2"/><rect class="cls-5" x="56" y="4" width="8" height="2"/><path class="cls-5" d="M10,20c0-2.76-5-9-5-9s-5,6.24-5,9a5,5,0,0,0,10,0Z"/></g></svg>