<?xml version="1.0" encoding="utf-8"?>
<!-- Generator: Adobe Illustrator 24.0.0, SVG Export Plug-In . SVG Version: 6.00 Build 0)  -->
<svg version="1.1" id="Layer_1" xmlns="http://www.w3.org/2000/svg" xmlns:xlink="http://www.w3.org/1999/xlink" x="0px" y="0px"
	 viewBox="0 0 256 256" enable-background="new 0 0 256 256" xml:space="preserve">
<g>
	<circle fill="#F8AF23" cx="148.554" cy="124.463" r="17.966"/>
	<rect x="61.647" y="185.945" fill="#F8AF23" width="16.073" height="41.168"/>
	<path fill="#F8AF23" d="M41.102,188.751l8.085-15.222v-10.414c0-3.441,2.789-6.23,6.23-6.23s6.23,2.789,6.23,6.23v63.998H30.101
		v-38.362H41.102z"/>
	
		<rect x="13.815" y="188.751" transform="matrix(-1 -4.534651e-11 4.534651e-11 -1 43.9153 415.8648)" fill="#6377E7" width="16.286" height="38.362"/>
	<polygon fill="#CECECE" points="131.235,168.007 87.904,145.268 87.904,103.64 131.235,80.901 	"/>
	<rect x="131.235" y="80.901" fill="#63BCE7" width="17.319" height="87.105"/>
	<rect x="51.462" y="103.64" fill="#F46275" width="36.442" height="41.646"/>
	<rect x="32.205" y="114.038" fill="#63BCE7" width="19.258" height="20.832"/>
	<g>
		<rect x="32.205" y="114.038" fill="#6377E7" width="14.667" height="20.832"/>
	</g>
	<rect x="61.647" y="145.286" fill="#CECECE" width="22.737" height="64.329"/>
	<path fill="#F8AF23" d="M71.868,183.5c0,3.441,2.789,6.23,6.23,6.23h10.414c3.441,0,6.23-2.789,6.23-6.23l0,0
		c0-3.441-2.789-6.23-6.23-6.23H78.099C74.658,177.269,71.868,180.059,71.868,183.5L71.868,183.5z"/>
	<path fill="#F8AF23" d="M71.868,195.961c0,3.441,2.789,6.23,6.23,6.23h10.414c3.441,0,6.23-2.789,6.23-6.23l0,0
		c0-3.441-2.789-6.23-6.23-6.23H78.099C74.658,189.73,71.868,192.52,71.868,195.961L71.868,195.961z"/>
	<path fill="#F8AF23" d="M71.868,208.422c0,3.441,2.789,6.23,6.23,6.23h10.414c3.441,0,6.23-2.789,6.23-6.23l0,0
		c0-3.441-2.789-6.23-6.23-6.23H78.099C74.658,202.191,71.868,204.981,71.868,208.422L71.868,208.422z"/>
	<path fill="#F8AF23" d="M71.868,220.883c0,3.441,2.789,6.23,6.23,6.23h10.414c3.441,0,6.23-2.789,6.23-6.23l0,0
		c0-3.441-2.789-6.23-6.23-6.23H78.099C74.658,214.652,71.868,217.442,71.868,220.883L71.868,220.883z"/>
	<g>
		<path fill="#F87023" d="M78.099,189.73c-0.02,0-0.039,0.003-0.059,0.003S78,189.73,77.98,189.73c0.02,0,0.039-0.003,0.059-0.003
			C78.059,189.728,78.079,189.73,78.099,189.73z"/>
		<path fill="#F87023" d="M78.04,214.655c-0.02,0-0.039-0.003-0.059-0.003c0.02,0,0.039-0.003,0.059-0.003
			c0.02,0,0.039,0.003,0.059,0.003C78.079,214.652,78.059,214.655,78.04,214.655z"/>
		<path fill="#F87023" d="M78.04,202.194c-0.02,0-0.039-0.003-0.059-0.003c0.02,0,0.039-0.003,0.059-0.003
			c0.02,0,0.039,0.003,0.059,0.003C78.079,202.191,78.059,202.194,78.04,202.194z"/>
	</g>
	<g>
		<circle fill="#CECECE" cx="209.791" cy="50.308" r="32.394"/>
		<g>
			<path fill="#E2E2E2" d="M227.519,50.308c0-15.367-10.704-28.226-25.06-31.55c2.358-0.546,4.81-0.844,7.333-0.844
				c17.891,0,32.394,14.503,32.394,32.394s-14.503,32.394-32.394,32.394c-2.523,0-4.976-0.298-7.333-0.844
				C216.815,78.533,227.519,65.675,227.519,50.308z"/>
		</g>
		<path fill="#F8AF23" d="M221.251,69.527c2.546,0,4.631-2.085,4.631-4.63v-1.315V47.938c0-2.548-2.085-4.63-4.631-4.63h-19.96
			v-7.587c0-2.547-1.727-4.632-3.835-4.632s-3.835,2.085-3.835,4.632v10.188v23.618H221.251z"/>
	</g>
	<g>
		<circle fill="#CECECE" cx="209.791" cy="122.513" r="32.394"/>
		<g>
			<path fill="#E2E2E2" d="M209.791,90.12c-2.523,0-4.976,0.298-7.333,0.844c14.357,3.324,25.061,16.183,25.061,31.55
				c0,15.367-10.704,28.226-25.061,31.55c2.358,0.546,4.81,0.844,7.333,0.844c17.891,0,32.394-14.503,32.394-32.394
				C242.185,104.623,227.682,90.12,209.791,90.12z"/>
		</g>
		<path fill="#F46275" d="M232.513,116.434c0-6.274-5.086-11.361-11.361-11.361s-11.361,5.086-11.361,11.361
			c0-6.274-5.086-11.361-11.361-11.361s-11.361,5.086-11.361,11.361c0,3.419,1.512,6.483,3.902,8.566l18.819,18.836l18.819-18.836
			C231.001,122.917,232.513,119.853,232.513,116.434z"/>
	</g>
	<g>
		<circle fill="#CECECE" cx="209.791" cy="194.719" r="32.394"/>
		<g>
			<path fill="#E2E2E2" d="M227.519,194.72c0-15.367-10.704-28.226-25.06-31.55c2.358-0.546,4.81-0.844,7.333-0.844
				c17.891,0,32.394,14.503,32.394,32.394s-14.503,32.394-32.394,32.394c-2.523,0-4.976-0.298-7.333-0.844
				C216.815,222.945,227.519,210.087,227.519,194.72z"/>
		</g>
		<g>
			<g>
				<circle fill="#F46275" cx="229.411" cy="194.719" r="5.81"/>
			</g>
			<g>
				<circle fill="#F46275" cx="209.791" cy="194.719" r="5.81"/>
			</g>
			<g>
				<circle fill="#F46275" cx="190.172" cy="194.719" r="5.81"/>
			</g>
		</g>
		<g>
			<path fill="#3F3679" d="M27.323,236.586H9.32c-0.829,0-1.5,0.672-1.5,1.5s0.671,1.5,1.5,1.5h18.003c0.829,0,1.5-0.672,1.5-1.5
				S28.152,236.586,27.323,236.586z"/>
			<path fill="#3F3679" d="M246.68,236.586h-18.003c-0.829,0-1.5,0.672-1.5,1.5s0.671,1.5,1.5,1.5h18.003c0.829,0,1.5-0.672,1.5-1.5
				S247.509,236.586,246.68,236.586z"/>
			<path fill="#3F3679" d="M218.479,236.586H37.521c-0.829,0-1.5,0.672-1.5,1.5s0.671,1.5,1.5,1.5h180.959
				c0.829,0,1.5-0.672,1.5-1.5S219.308,236.586,218.479,236.586z"/>
			<path fill="#3F3679" d="M78.099,228.613h10.414H246.68c0.829,0,1.5-0.672,1.5-1.5s-0.671-1.5-1.5-1.5h-22.974
				c11.767-5.321,19.98-17.163,19.98-30.894c0-18.689-15.205-33.895-33.894-33.895s-33.894,15.205-33.894,33.895
				c0,13.731,8.213,25.573,19.98,30.894H94.613c1.017-1.309,1.63-2.948,1.63-4.73c0-2.558-1.254-4.823-3.173-6.23
				c1.92-1.408,3.173-3.673,3.173-6.23s-1.254-4.823-3.173-6.23c1.92-1.408,3.173-3.673,3.173-6.23s-1.254-4.823-3.173-6.23
				c1.92-1.408,3.173-3.673,3.173-6.23c0-4.263-3.468-7.73-7.73-7.73h-2.629v-28.983h1.685l42.97,22.549v-0.007
				c0.209,0.111,0.444,0.179,0.697,0.179h17.319c0.829,0,1.5-0.672,1.5-1.5v-24.154c10.033-0.771,17.966-9.163,17.966-19.39
				s-7.933-18.619-17.966-19.39V80.901c0-0.828-0.671-1.5-1.5-1.5h-17.319c-0.253,0-0.488,0.068-0.697,0.179v-0.007L87.535,102.14
				H51.462c-0.829,0-1.5,0.672-1.5,1.5v8.898H32.205c-0.829,0-1.5,0.672-1.5,1.5v20.832c0,0.828,0.671,1.5,1.5,1.5h17.758v8.916
				c0,0.828,0.671,1.5,1.5,1.5h8.685v10.229c-1.309-1.018-2.948-1.63-4.73-1.63c-4.263,0-7.73,3.468-7.73,7.73v10.04L40.2,187.251
				H30.101H13.814c-0.829,0-1.5,0.672-1.5,1.5v36.862H9.32c-0.829,0-1.5,0.672-1.5,1.5s0.671,1.5,1.5,1.5h4.495h16.286h31.547
				H78.099z M178.897,194.72c0-17.035,13.859-30.895,30.894-30.895s30.894,13.859,30.894,30.895s-13.859,30.894-30.894,30.894
				S178.897,211.755,178.897,194.72z M165.02,124.463c0,8.573-6.588,15.629-14.966,16.39v-32.779
				C158.432,108.834,165.02,115.89,165.02,124.463z M132.735,82.401h14.319v84.105h-14.319V82.401z M63.147,211.115h7.714
				c0.533,1.426,1.472,2.651,2.68,3.537c-1.92,1.408-3.173,3.673-3.173,6.23c0,1.783,0.612,3.421,1.63,4.73h-8.85V211.115z
				 M93.243,220.883c0,2.608-2.122,4.73-4.73,4.73H78.099c-2.608,0-4.73-2.122-4.73-4.73s2.122-4.73,4.73-4.73h10.414
				C91.121,216.152,93.243,218.274,93.243,220.883z M93.243,208.422c0,2.608-2.122,4.73-4.73,4.73H78.099
				c-2.608,0-4.73-2.122-4.73-4.73s2.122-4.73,4.73-4.73h10.414C91.121,203.691,93.243,205.813,93.243,208.422z M93.243,195.961
				c0,2.608-2.122,4.73-4.73,4.73H78.099c-2.608,0-4.73-2.122-4.73-4.73s2.122-4.73,4.73-4.73h10.414
				C91.121,191.23,93.243,193.353,93.243,195.961z M93.243,183.5c0,2.608-2.122,4.73-4.73,4.73H78.099
				c-2.608,0-4.73-2.122-4.73-4.73s2.122-4.73,4.73-4.73h10.414C91.121,178.77,93.243,180.892,93.243,183.5z M129.735,165.525
				l-40.331-21.164v-39.814l40.331-21.164V165.525z M33.705,133.37v-17.832h16.258v17.832H33.705z M52.962,134.87v-20.832v-8.898
				h33.442v38.646h-2.021H61.647h-8.685V134.87z M82.884,146.786v28.983h-4.785c-4.263,0-7.73,3.468-7.73,7.73
				c0,2.558,1.254,4.823,3.173,6.23c-1.92,1.408-3.173,3.673-3.173,6.23s1.254,4.823,3.173,6.23
				c-1.842,1.351-3.062,3.493-3.158,5.924h-7.236v-45v-16.329H82.884z M15.314,190.251h5.143v21.396c0,0.828,0.671,1.5,1.5,1.5
				s1.5-0.672,1.5-1.5v-21.396h5.143v35.362H15.314V190.251z M31.601,225.613v-35.362h9.501c0.555,0,1.064-0.307,1.325-0.796
				l8.085-15.222c0.115-0.217,0.175-0.459,0.175-0.704v-10.414c0-2.608,2.122-4.73,4.73-4.73s4.73,2.122,4.73,4.73v46.5v15.998
				H31.601z"/>
			<path fill="#3F3679" d="M209.792,84.201c18.689,0,33.894-15.205,33.894-33.894s-15.205-33.894-33.894-33.894
				s-33.894,15.205-33.894,33.894S191.102,84.201,209.792,84.201z M209.792,19.414c17.035,0,30.894,13.858,30.894,30.894
				s-13.859,30.894-30.894,30.894s-30.894-13.858-30.894-30.894S192.756,19.414,209.792,19.414z"/>
			<path fill="#3F3679" d="M193.621,71.026h27.63c3.381,0,6.131-2.75,6.131-6.13V47.938c0-3.381-2.75-6.131-6.131-6.131h-18.46
				v-6.087c0-3.381-2.394-6.132-5.335-6.132s-5.335,2.751-5.335,6.132v33.806C192.121,70.354,192.792,71.026,193.621,71.026z
				 M195.121,35.721c0-1.697,1.069-3.132,2.335-3.132c1.266,0,2.335,1.435,2.335,3.132v7.587c0,0.828,0.671,1.5,1.5,1.5h19.96
				c1.727,0,3.131,1.404,3.131,3.131v0.626H207.72c-0.829,0-1.5,0.672-1.5,1.5s0.671,1.5,1.5,1.5h16.663v3.759H207.72
				c-0.829,0-1.5,0.672-1.5,1.5s0.671,1.5,1.5,1.5h16.663v3.759H207.72c-0.829,0-1.5,0.672-1.5,1.5s0.671,1.5,1.5,1.5h16.644
				c-0.098,1.638-1.45,2.944-3.113,2.944h-26.13V35.721z"/>
			<path fill="#3F3679" d="M209.792,156.407c18.689,0,33.894-15.205,33.894-33.894c0-18.689-15.205-33.895-33.894-33.895
				s-33.894,15.205-33.894,33.895C175.897,141.202,191.102,156.407,209.792,156.407z M209.792,91.619
				c17.035,0,30.894,13.859,30.894,30.895s-13.859,30.894-30.894,30.894s-30.894-13.858-30.894-30.894
				S192.756,91.619,209.792,91.619z"/>
			<path fill="#3F3679" d="M189.947,126.095l18.784,18.801c0.281,0.281,0.663,0.439,1.061,0.439s0.78-0.158,1.061-0.439
				l18.784-18.801c2.783-2.444,4.377-5.962,4.377-9.661c0-7.091-5.77-12.86-12.861-12.86c-4.917,0-9.197,2.772-11.361,6.837
				c-2.164-4.064-6.444-6.837-11.361-6.837c-7.091,0-12.861,5.77-12.861,12.86C185.57,120.133,187.164,123.65,189.947,126.095z
				 M198.431,106.573c5.438,0,9.861,4.423,9.861,9.86c0,0.828,0.671,1.5,1.5,1.5s1.5-0.672,1.5-1.5c0-5.438,4.423-9.86,9.861-9.86
				s9.861,4.423,9.861,9.86c0,2.849-1.235,5.559-3.388,7.435c-0.026,0.022-0.051,0.046-0.076,0.07l-17.758,17.774l-17.758-17.774
				c-0.024-0.024-0.05-0.048-0.076-0.07c-2.153-1.876-3.388-4.586-3.388-7.435C188.57,110.996,192.993,106.573,198.431,106.573z"/>
			<path fill="#3F3679" d="M236.721,194.72c0-4.031-3.279-7.311-7.31-7.311c-4.031,0-7.31,3.279-7.31,7.311
				c0,4.03,3.279,7.31,7.31,7.31C233.441,202.029,236.721,198.75,236.721,194.72z M229.411,199.029c-2.376,0-4.31-1.934-4.31-4.31
				c0-2.377,1.934-4.311,4.31-4.311s4.31,1.934,4.31,4.311C233.721,197.096,231.788,199.029,229.411,199.029z"/>
			<path fill="#3F3679" d="M209.792,187.409c-4.031,0-7.31,3.279-7.31,7.311c0,4.03,3.279,7.31,7.31,7.31s7.31-3.279,7.31-7.31
				C217.102,190.688,213.822,187.409,209.792,187.409z M209.792,199.029c-2.376,0-4.31-1.934-4.31-4.31
				c0-2.377,1.934-4.311,4.31-4.311s4.31,1.934,4.31,4.311C214.102,197.096,212.168,199.029,209.792,199.029z"/>
			<path fill="#3F3679" d="M190.172,187.409c-4.031,0-7.31,3.279-7.31,7.311c0,4.03,3.279,7.31,7.31,7.31s7.31-3.279,7.31-7.31
				C197.482,190.688,194.203,187.409,190.172,187.409z M190.172,199.029c-2.376,0-4.31-1.934-4.31-4.31
				c0-2.377,1.934-4.311,4.31-4.311s4.31,1.934,4.31,4.311C194.482,197.096,192.548,199.029,190.172,199.029z"/>
		</g>
	</g>
</g>
</svg>
